<svg xmlns="http://www.w3.org/2000/svg" viewBox="0 0 64 64" id="kaaba"><path d="M56,29h-.16L32,25,8.16,29A1,1,0,0,1,7,28V15a1,1,0,0,1,.72-1l24-7a1.06,1.06,0,0,1,.56,0l24,7A1,1,0,0,1,57,15V28a1,1,0,0,1-.35.76A1,1,0,0,1,56,29ZM32,23h.16L55,26.82V15.75L32,9,9,15.75V26.82L31.84,23Z" fill="#ffffff" class="color000000 svgShape"></path><path d="M56,29h-.16L32,25,8.16,29A1,1,0,0,1,7,28V22a1,1,0,0,1,.8-1l24-5a.9.9,0,0,1,.4,0l24,5a1,1,0,0,1,.8,1v6a1,1,0,0,1-.35.76A1,1,0,0,1,56,29ZM32,23h.16L55,26.82v-4L32,18,9,22.81v4L31.84,23Z" fill="#ffffff" class="color000000 svgShape"></path><path d="M32,57l-.2,0-24-5A1,1,0,0,1,7,51V28a1,1,0,0,1,.84-1l24-4A1,1,0,0,1,33,24V56a1,1,0,0,1-1,1ZM9,50.19l22,4.58V25.18L9,28.85Z" fill="#ffffff" class="color000000 svgShape"></path><path d="M32,57a1,1,0,0,1-1-1V24a1,1,0,0,1,1.16-1l24,4A1,1,0,0,1,57,28V51a1,1,0,0,1-.8,1l-24,5Zm1-31.82V54.77l22-4.58V28.85Z" fill="#ffffff" class="color000000 svgShape"></path><path d="M32 25a1 1 0 0 1-1-1V8a1 1 0 0 1 2 0V24A1 1 0 0 1 32 25zM8 34a1 1 0 0 1-.08-2l2-.16a1 1 0 0 1 .17 2l-2 .17zM13.29 32.56a1 1 0 0 1 .91-1.08h0a1 1 0 0 1 1.08.91h0a1 1 0 0 1-.92 1.08h-.08A1 1 0 0 1 13.29 32.56zM18.57 33.12a1 1 0 0 1-1-.92 1 1 0 0 1 .92-1.08l2.86-.24a1 1 0 0 1 1.08.92 1 1 0 0 1-.24.73 1 1 0 0 1-.68.35l-2.86.24zm7.15-.6A1 1 0 0 1 25 30.88a1 1 0 0 1 1.76.56 1 1 0 0 1-.23.73 1 1 0 0 1-.68.35zM30 32.17a1 1 0 0 1-.09-2l2-.17a1 1 0 0 1 1.08.92A1 1 0 0 1 32.08 32l-2 .16zM56 34h-.08l-2-.17a1 1 0 0 1 .17-2l2 .16A1 1 0 0 1 56 34zM49.63 33.47a1 1 0 0 1-.91-1.08h0a1 1 0 0 1 1.08-.91h0a1 1 0 0 1 .91 1.08h0a1 1 0 0 1-1 .92h-.09zM45.43 33.12h-.08l-2.86-.24a1 1 0 0 1-.92-1.08 1 1 0 0 1 1.08-.92l2.86.24a1 1 0 0 1 .68.35 1 1 0 0 1 .24.73A1 1 0 0 1 45.43 33.12zm-7.15-.6H38.2a1 1 0 0 1-.92-1.08 1 1 0 0 1 1.08-.91 1 1 0 0 1 .68.35 1 1 0 0 1 .24.72A1 1 0 0 1 38.28 32.52z" fill="#ffffff" class="color000000 svgShape"></path><path d="M34,32.17h-.08l-2-.16A1,1,0,0,1,31,30.92,1,1,0,0,1,32.08,30l2,.17a1,1,0,0,1-.09,2Z" fill="#ffffff" class="color000000 svgShape"></path></svg>