<svg xmlns="http://www.w3.org/2000/svg" xmlns:xlink="http://www.w3.org/1999/xlink" width="40" zoomAndPan="magnify" viewBox="0 0 30 30.000001" height="40" preserveAspectRatio="xMidYMid meet" version="1.0"><defs><clipPath id="d82c514b11"><path d="M 0.484375 4.15625 L 29.515625 4.15625 L 29.515625 25 L 0.484375 25 Z M 0.484375 4.15625 " clip-rule="nonzero"/></clipPath></defs><g clip-path="url(#d82c514b11)"><path fill="#727272" d="M 29.261719 22.210938 L 29.015625 22.210938 L 29.015625 19.394531 C 29.015625 19.210938 29.136719 19.054688 29.308594 19.019531 C 29.433594 18.996094 29.515625 18.875 29.488281 18.75 C 29.460938 18.625 29.339844 18.542969 29.214844 18.570312 C 28.832031 18.648438 28.554688 18.996094 28.554688 19.394531 L 28.554688 22.210938 L 28.054688 22.210938 L 28.054688 19.359375 C 28.054688 18.914062 27.695312 18.554688 27.25 18.554688 L 27.199219 18.554688 C 26.757812 18.554688 26.394531 18.914062 26.394531 19.359375 L 26.394531 22.210938 L 25.898438 22.210938 L 25.898438 19.359375 C 25.898438 18.914062 25.535156 18.554688 25.09375 18.554688 L 25.042969 18.554688 C 24.601562 18.554688 24.238281 18.914062 24.238281 19.359375 L 24.238281 22.210938 L 23.738281 22.210938 L 23.738281 19.394531 C 23.738281 18.929688 23.367188 18.554688 22.910156 18.554688 C 22.867188 18.554688 22.824219 18.558594 22.78125 18.5625 L 22.78125 17.792969 L 29.261719 17.792969 C 29.390625 17.792969 29.492188 17.691406 29.492188 17.5625 C 29.492188 17.4375 29.390625 17.335938 29.261719 17.335938 L 29.015625 17.335938 L 29.015625 14.515625 C 29.015625 14.335938 29.136719 14.179688 29.308594 14.144531 C 29.433594 14.117188 29.515625 13.996094 29.488281 13.871094 C 29.460938 13.746094 29.339844 13.667969 29.214844 13.691406 C 28.832031 13.769531 28.554688 14.117188 28.554688 14.515625 L 28.554688 17.332031 L 28.054688 17.332031 L 28.054688 14.480469 C 28.054688 14.035156 27.695312 13.675781 27.25 13.675781 L 27.199219 13.675781 C 26.757812 13.675781 26.394531 14.035156 26.394531 14.480469 L 26.394531 17.332031 L 25.898438 17.332031 L 25.898438 14.480469 C 25.898438 14.035156 25.535156 13.675781 25.09375 13.675781 L 25.042969 13.675781 C 24.601562 13.675781 24.238281 14.035156 24.238281 14.480469 L 24.238281 17.332031 L 23.738281 17.332031 L 23.738281 14.515625 C 23.738281 14.050781 23.367188 13.675781 22.910156 13.675781 C 22.867188 13.675781 22.824219 13.679688 22.78125 13.6875 L 22.78125 12.898438 L 29.28125 12.425781 C 29.40625 12.417969 29.5 12.308594 29.492188 12.179688 C 29.484375 12.054688 29.371094 11.960938 29.246094 11.96875 L 22.78125 12.4375 L 22.78125 11.710938 C 22.78125 11.605469 22.707031 11.511719 22.605469 11.488281 L 19.425781 10.707031 L 19.425781 9.011719 L 19.433594 9.011719 C 19.824219 9.011719 20.144531 8.691406 20.144531 8.296875 C 20.144531 7.898438 19.824219 7.578125 19.433594 7.578125 L 19.425781 7.578125 L 19.425781 6.585938 C 19.425781 6.539062 19.410156 6.492188 19.378906 6.453125 L 18.707031 5.535156 L 18.707031 4.636719 C 18.707031 4.507812 18.601562 4.40625 18.476562 4.40625 C 18.347656 4.40625 18.246094 4.507812 18.246094 4.636719 L 18.246094 5.535156 L 17.570312 6.453125 C 17.542969 6.492188 17.527344 6.539062 17.527344 6.589844 L 17.527344 7.578125 L 17.515625 7.578125 C 17.125 7.578125 16.808594 7.898438 16.808594 8.296875 C 16.808594 8.691406 17.125 9.011719 17.515625 9.011719 L 17.527344 9.011719 L 17.527344 10.238281 L 15.652344 9.78125 C 15.652344 9.777344 15.648438 9.78125 15.648438 9.78125 C 15.617188 9.773438 15.585938 9.769531 15.550781 9.777344 L 12.714844 10.371094 L 12.714844 8.769531 L 12.722656 8.769531 C 13.113281 8.769531 13.433594 8.449219 13.433594 8.050781 C 13.433594 7.65625 13.113281 7.335938 12.722656 7.335938 L 12.714844 7.335938 L 12.714844 6.34375 C 12.714844 6.296875 12.699219 6.246094 12.667969 6.207031 L 11.992188 5.292969 L 11.992188 4.394531 C 11.992188 4.265625 11.890625 4.164062 11.765625 4.164062 C 11.636719 4.164062 11.535156 4.265625 11.535156 4.394531 L 11.535156 5.292969 L 10.859375 6.207031 C 10.832031 6.246094 10.816406 6.296875 10.816406 6.34375 L 10.816406 7.332031 L 10.804688 7.332031 C 10.414062 7.332031 10.09375 7.65625 10.09375 8.050781 C 10.09375 8.445312 10.414062 8.769531 10.804688 8.769531 L 10.816406 8.769531 L 10.816406 10.769531 L 7.402344 11.484375 C 7.296875 11.507812 7.21875 11.601562 7.21875 11.710938 L 7.21875 12.4375 L 0.753906 11.96875 C 0.628906 11.960938 0.515625 12.054688 0.507812 12.179688 C 0.5 12.308594 0.59375 12.417969 0.71875 12.425781 L 7.21875 12.898438 L 7.21875 13.6875 C 7.175781 13.679688 7.132812 13.675781 7.089844 13.675781 C 6.632812 13.675781 6.261719 14.050781 6.261719 14.515625 L 6.261719 17.332031 L 5.761719 17.332031 L 5.761719 14.480469 C 5.761719 14.035156 5.398438 13.675781 4.957031 13.675781 L 4.90625 13.675781 C 4.464844 13.675781 4.101562 14.035156 4.101562 14.480469 L 4.101562 17.332031 L 3.605469 17.332031 L 3.605469 14.480469 C 3.605469 14.035156 3.242188 13.675781 2.796875 13.675781 L 2.75 13.675781 C 2.304688 13.675781 1.945312 14.035156 1.945312 14.480469 L 1.945312 17.332031 L 1.445312 17.332031 L 1.445312 14.515625 C 1.445312 14.117188 1.167969 13.769531 0.785156 13.691406 C 0.660156 13.667969 0.539062 13.746094 0.511719 13.871094 C 0.484375 13.996094 0.566406 14.117188 0.691406 14.144531 C 0.863281 14.179688 0.984375 14.335938 0.984375 14.515625 L 0.984375 17.332031 L 0.738281 17.332031 C 0.609375 17.332031 0.507812 17.4375 0.507812 17.5625 C 0.507812 17.691406 0.609375 17.792969 0.738281 17.792969 L 7.21875 17.792969 L 7.21875 18.5625 C 7.175781 18.558594 7.132812 18.554688 7.089844 18.554688 C 6.632812 18.554688 6.261719 18.929688 6.261719 19.394531 L 6.261719 22.210938 L 5.761719 22.210938 L 5.761719 19.359375 C 5.761719 18.914062 5.398438 18.554688 4.957031 18.554688 L 4.90625 18.554688 C 4.464844 18.554688 4.101562 18.914062 4.101562 19.359375 L 4.101562 22.210938 L 3.605469 22.210938 L 3.605469 19.359375 C 3.605469 18.914062 3.242188 18.554688 2.796875 18.554688 L 2.75 18.554688 C 2.304688 18.554688 1.945312 18.914062 1.945312 19.359375 L 1.945312 22.210938 L 1.445312 22.210938 L 1.445312 19.394531 C 1.445312 18.996094 1.167969 18.648438 0.785156 18.570312 C 0.660156 18.542969 0.539062 18.625 0.511719 18.75 C 0.484375 18.875 0.566406 18.996094 0.691406 19.019531 C 0.863281 19.054688 0.984375 19.210938 0.984375 19.394531 L 0.984375 22.210938 L 0.738281 22.210938 C 0.609375 22.210938 0.507812 22.316406 0.507812 22.441406 C 0.507812 22.570312 0.609375 22.671875 0.738281 22.671875 L 7.21875 22.671875 L 7.21875 23.660156 C 7.21875 23.777344 7.304688 23.875 7.421875 23.890625 L 15.570312 24.867188 C 15.582031 24.867188 15.589844 24.867188 15.597656 24.867188 C 15.601562 24.867188 15.597656 24.867188 15.601562 24.867188 C 15.609375 24.867188 15.621094 24.867188 15.632812 24.863281 L 22.582031 23.890625 C 22.695312 23.875 22.78125 23.777344 22.78125 23.660156 L 22.78125 22.671875 L 29.261719 22.671875 C 29.390625 22.671875 29.492188 22.570312 29.492188 22.441406 C 29.492188 22.316406 29.390625 22.210938 29.261719 22.210938 Z M 22.320312 14.4375 L 15.828125 13.375 L 15.828125 12.132812 L 22.320312 13.195312 Z M 21.464844 15.460938 C 21.414062 15.5 21.347656 15.511719 21.285156 15.503906 C 21.148438 15.480469 21.054688 15.347656 21.078125 15.207031 C 21.089844 15.136719 21.125 15.078125 21.179688 15.039062 C 21.222656 15.007812 21.273438 14.992188 21.324219 14.992188 C 21.335938 14.992188 21.347656 14.992188 21.363281 14.992188 C 21.5 15.015625 21.59375 15.148438 21.570312 15.289062 C 21.558594 15.359375 21.523438 15.417969 21.464844 15.460938 Z M 19.335938 15.113281 C 19.285156 15.148438 19.21875 15.164062 19.15625 15.15625 C 19.019531 15.132812 18.925781 15 18.949219 14.859375 C 18.957031 14.789062 18.996094 14.730469 19.050781 14.6875 C 19.09375 14.660156 19.140625 14.640625 19.191406 14.640625 C 19.207031 14.640625 19.21875 14.644531 19.234375 14.644531 C 19.367188 14.667969 19.460938 14.800781 19.441406 14.941406 C 19.429688 15.011719 19.390625 15.070312 19.335938 15.113281 Z M 17.207031 14.761719 C 17.152344 14.800781 17.089844 14.816406 17.023438 14.804688 C 16.886719 14.785156 16.796875 14.652344 16.816406 14.511719 C 16.828125 14.441406 16.863281 14.378906 16.921875 14.339844 C 16.964844 14.308594 17.011719 14.292969 17.0625 14.292969 C 17.078125 14.292969 17.089844 14.292969 17.101562 14.296875 C 17.238281 14.320312 17.332031 14.453125 17.308594 14.59375 C 17.296875 14.664062 17.261719 14.722656 17.207031 14.761719 Z M 15.371094 13.375 L 7.679688 14.632812 L 7.679688 13.394531 L 15.371094 12.132812 Z M 14.175781 14.804688 C 14.109375 14.816406 14.046875 14.800781 13.992188 14.761719 C 13.9375 14.722656 13.898438 14.664062 13.890625 14.59375 C 13.867188 14.453125 13.960938 14.320312 14.097656 14.296875 C 14.160156 14.285156 14.226562 14.300781 14.277344 14.339844 C 14.332031 14.378906 14.371094 14.441406 14.382812 14.511719 C 14.402344 14.652344 14.3125 14.785156 14.175781 14.804688 Z M 12.042969 15.15625 C 11.980469 15.164062 11.914062 15.148438 11.863281 15.113281 C 11.808594 15.070312 11.769531 15.011719 11.757812 14.941406 C 11.738281 14.800781 11.828125 14.667969 11.964844 14.644531 C 11.980469 14.644531 11.992188 14.640625 12.003906 14.640625 C 12.054688 14.640625 12.105469 14.660156 12.148438 14.6875 C 12.203125 14.730469 12.242188 14.789062 12.25 14.859375 C 12.273438 15 12.179688 15.132812 12.042969 15.15625 Z M 9.914062 15.503906 C 9.851562 15.515625 9.785156 15.5 9.730469 15.460938 C 9.675781 15.417969 9.640625 15.359375 9.628906 15.289062 C 9.605469 15.148438 9.699219 15.015625 9.835938 14.996094 C 9.847656 14.992188 9.863281 14.992188 9.875 14.992188 C 9.925781 14.992188 9.976562 15.007812 10.019531 15.039062 C 10.074219 15.078125 10.109375 15.136719 10.121094 15.207031 C 10.144531 15.347656 10.050781 15.480469 9.914062 15.503906 Z M 7.679688 15.101562 L 9.296875 14.835938 C 9.191406 14.984375 9.144531 15.171875 9.175781 15.363281 C 9.203125 15.550781 9.304688 15.714844 9.453125 15.824219 L 7.679688 16.117188 Z M 10.574219 15.136719 C 10.546875 14.949219 10.445312 14.785156 10.296875 14.671875 L 11.425781 14.488281 C 11.324219 14.636719 11.273438 14.820312 11.304688 15.011719 C 11.332031 15.199219 11.433594 15.363281 11.585938 15.476562 L 10.453125 15.660156 C 10.558594 15.515625 10.605469 15.328125 10.574219 15.136719 Z M 12.707031 14.785156 C 12.675781 14.597656 12.578125 14.4375 12.425781 14.324219 L 13.558594 14.136719 C 13.453125 14.285156 13.40625 14.472656 13.433594 14.664062 C 13.464844 14.851562 13.5625 15.015625 13.714844 15.128906 L 12.585938 15.3125 C 12.6875 15.164062 12.734375 14.980469 12.707031 14.785156 Z M 14.835938 14.4375 C 14.804688 14.25 14.707031 14.085938 14.554688 13.976562 L 15.371094 13.839844 L 15.371094 14.859375 L 14.714844 14.964844 C 14.816406 14.816406 14.867188 14.628906 14.835938 14.4375 Z M 15.828125 13.839844 L 16.644531 13.976562 C 16.492188 14.085938 16.394531 14.25 16.363281 14.4375 C 16.332031 14.628906 16.382812 14.816406 16.484375 14.964844 L 15.828125 14.859375 Z M 17.765625 14.664062 C 17.792969 14.472656 17.746094 14.285156 17.640625 14.136719 L 18.773438 14.324219 C 18.621094 14.433594 18.523438 14.597656 18.492188 14.785156 C 18.460938 14.980469 18.511719 15.164062 18.613281 15.3125 L 17.484375 15.128906 C 17.632812 15.015625 17.734375 14.851562 17.765625 14.664062 Z M 19.894531 15.011719 C 19.925781 14.820312 19.875 14.632812 19.773438 14.488281 L 20.902344 14.671875 C 20.753906 14.785156 20.652344 14.949219 20.625 15.136719 C 20.59375 15.328125 20.640625 15.515625 20.746094 15.660156 L 19.613281 15.476562 C 19.765625 15.363281 19.863281 15.199219 19.894531 15.011719 Z M 22.023438 15.363281 C 22.054688 15.171875 22.003906 14.984375 21.902344 14.835938 L 22.320312 14.902344 L 22.320312 15.917969 L 21.742188 15.824219 C 21.894531 15.714844 21.996094 15.550781 22.023438 15.363281 Z M 26.855469 14.480469 C 26.855469 14.289062 27.011719 14.136719 27.203125 14.136719 L 27.25 14.136719 C 27.441406 14.136719 27.59375 14.289062 27.59375 14.480469 L 27.59375 17.332031 L 26.855469 17.332031 Z M 24.699219 14.480469 C 24.699219 14.289062 24.855469 14.136719 25.042969 14.136719 L 25.09375 14.136719 C 25.28125 14.136719 25.4375 14.289062 25.4375 14.480469 L 25.4375 17.332031 L 24.699219 17.332031 Z M 22.910156 14.136719 C 23.113281 14.136719 23.28125 14.304688 23.28125 14.515625 L 23.28125 17.332031 L 22.78125 17.332031 L 22.78125 14.160156 C 22.824219 14.144531 22.867188 14.136719 22.910156 14.136719 Z M 17.988281 6.664062 L 18.476562 6 L 18.964844 6.664062 L 18.964844 7.578125 L 17.988281 7.578125 Z M 17.269531 8.296875 C 17.269531 8.152344 17.378906 8.039062 17.515625 8.039062 L 19.433594 8.039062 C 19.574219 8.039062 19.683594 8.152344 19.683594 8.296875 C 19.683594 8.4375 19.574219 8.554688 19.433594 8.554688 L 17.515625 8.554688 C 17.378906 8.554688 17.269531 8.4375 17.269531 8.296875 Z M 17.988281 9.011719 L 18.964844 9.011719 L 18.964844 10.59375 L 17.988281 10.351562 Z M 22.320312 11.890625 L 22.320312 12.730469 L 15.828125 11.667969 L 15.828125 10.296875 Z M 11.273438 6.417969 L 11.765625 5.757812 L 12.253906 6.417969 L 12.253906 7.332031 L 11.273438 7.332031 Z M 10.554688 8.050781 C 10.554688 7.910156 10.667969 7.792969 10.804688 7.792969 L 12.722656 7.792969 C 12.859375 7.792969 12.972656 7.910156 12.972656 8.050781 C 12.972656 8.195312 12.859375 8.308594 12.722656 8.308594 L 10.804688 8.308594 C 10.667969 8.308594 10.554688 8.195312 10.554688 8.050781 Z M 11.273438 8.769531 L 12.253906 8.769531 L 12.253906 10.46875 L 11.273438 10.671875 Z M 15.371094 10.285156 L 15.371094 11.667969 L 7.679688 12.925781 L 7.679688 11.898438 Z M 2.40625 17.332031 L 2.40625 14.480469 C 2.40625 14.289062 2.558594 14.136719 2.75 14.136719 L 2.796875 14.136719 C 2.988281 14.136719 3.144531 14.289062 3.144531 14.480469 L 3.144531 17.332031 Z M 4.5625 17.332031 L 4.5625 14.480469 C 4.5625 14.289062 4.71875 14.136719 4.90625 14.136719 L 4.957031 14.136719 C 5.144531 14.136719 5.300781 14.289062 5.300781 14.480469 L 5.300781 17.332031 Z M 6.71875 17.332031 L 6.71875 14.515625 C 6.71875 14.304688 6.886719 14.136719 7.089844 14.136719 C 7.132812 14.136719 7.175781 14.144531 7.21875 14.160156 L 7.21875 17.332031 Z M 2.40625 22.210938 L 2.40625 19.359375 C 2.40625 19.167969 2.558594 19.011719 2.75 19.011719 L 2.796875 19.011719 C 2.988281 19.011719 3.144531 19.167969 3.144531 19.359375 L 3.144531 22.210938 Z M 4.5625 22.210938 L 4.5625 19.359375 C 4.5625 19.167969 4.71875 19.011719 4.90625 19.011719 L 4.957031 19.011719 C 5.144531 19.011719 5.300781 19.167969 5.300781 19.359375 L 5.300781 22.210938 Z M 6.71875 22.210938 L 6.71875 19.394531 C 6.71875 19.183594 6.886719 19.011719 7.089844 19.011719 C 7.132812 19.011719 7.175781 19.023438 7.21875 19.039062 L 7.21875 22.210938 Z M 7.679688 16.582031 L 15.371094 15.324219 L 15.371094 24.378906 L 7.679688 23.457031 Z M 22.320312 23.460938 L 15.828125 24.371094 L 15.828125 15.324219 L 22.320312 16.386719 Z M 22.78125 22.210938 L 22.78125 19.039062 C 22.820312 19.023438 22.867188 19.011719 22.910156 19.011719 C 23.113281 19.011719 23.28125 19.183594 23.28125 19.394531 L 23.28125 22.210938 Z M 24.699219 22.210938 L 24.699219 19.359375 C 24.699219 19.167969 24.855469 19.011719 25.042969 19.011719 L 25.09375 19.011719 C 25.28125 19.011719 25.4375 19.167969 25.4375 19.359375 L 25.4375 22.210938 Z M 26.855469 22.210938 L 26.855469 19.359375 C 26.855469 19.167969 27.011719 19.011719 27.203125 19.011719 L 27.25 19.011719 C 27.441406 19.011719 27.59375 19.167969 27.59375 19.359375 L 27.59375 22.210938 Z M 26.855469 22.210938 " fill-opacity="1" fill-rule="nonzero"/></g></svg>